<svg width="14" height="14" viewBox="0 0 14 14" fill="none" xmlns="http://www.w3.org/2000/svg">
<path d="M3.62853 3.6244C4.62127 2.9793 5.77159 2.5 6.99936 2.5C9.78936 2.5 12.1794 4.97503 13.2294 6.2463C13.3952 6.45302 13.487 6.72159 13.487 7.00006C13.487 7.27853 13.3952 7.5471 13.2294 7.75382C12.6506 8.45457 11.6646 9.52108 10.429 10.3372M8.49936 11.2697C8.01698 11.4156 7.515 11.5001 6.99936 11.5001C4.20936 11.5001 1.81936 9.02509 0.769358 7.75382C0.603518 7.5471 0.511719 7.27853 0.511719 7.00006C0.511719 6.72159 0.603518 6.45302 0.769358 6.2463C1.10203 5.84352 1.56921 5.31991 2.14101 4.79247" stroke="#444444" stroke-linecap="round" stroke-linejoin="round"/>
<path d="M8.41436 8.41421C9.19541 7.63316 9.19541 6.36683 8.41436 5.58578C7.63331 4.80474 6.36699 4.80474 5.58594 5.58578" stroke="#444444" stroke-linecap="round" stroke-linejoin="round"/>
<path d="M13.5 13.5L0.5 0.5" stroke="#444444" stroke-linecap="round" stroke-linejoin="round"/>
</svg>
