<svg width="14" height="14" viewBox="0 0 14 14" fill="none" xmlns="http://www.w3.org/2000/svg">
<g clip-path="url(#clip0_302_7356)">
<path d="M10 0.5H1.5C0.947715 0.5 0.5 0.947715 0.5 1.5V10C0.5 10.5523 0.947715 11 1.5 11H10C10.5523 11 11 10.5523 11 10V1.5C11 0.947715 10.5523 0.5 10 0.5Z" stroke="#444444" stroke-linecap="round" stroke-linejoin="round"/>
<path d="M13.5 3.5V12.5C13.5 12.7652 13.3946 13.0196 13.2071 13.2071C13.0196 13.3946 12.7652 13.5 12.5 13.5H3.5" stroke="#444444" stroke-linecap="round" stroke-linejoin="round"/>
<path d="M3.75065 7.64034V3.86034C3.74989 3.7958 3.7665 3.73224 3.79873 3.67632C3.83096 3.6204 3.87763 3.57418 3.93386 3.54248C3.99009 3.51079 4.0538 3.4948 4.11833 3.49618C4.18286 3.49756 4.24583 3.51627 4.30065 3.55034L7.57065 5.44034C7.62456 5.47216 7.66923 5.5175 7.70026 5.57186C7.7313 5.62622 7.74762 5.68774 7.74762 5.75034C7.74762 5.81294 7.7313 5.87445 7.70026 5.92882C7.66923 5.98318 7.62456 6.02851 7.57065 6.06034L4.30065 8.00034C4.24217 8.0379 4.17405 8.05774 4.10454 8.05744C4.03503 8.05714 3.9671 8.03672 3.90894 7.99865C3.85078 7.96058 3.80488 7.90649 3.77679 7.84291C3.7487 7.77932 3.73963 7.70897 3.75065 7.64034Z" stroke="#444444" stroke-linecap="round" stroke-linejoin="round"/>
</g>
<defs>
<clipPath id="clip0_302_7356">
<rect width="14" height="14" fill="white"/>
</clipPath>
</defs>
</svg>
