<svg width="14" height="14" viewBox="0 0 14 14" fill="none" xmlns="http://www.w3.org/2000/svg">
<g clip-path="url(#clip0_302_3859)">
<path d="M5.21484 1.64286C5.21484 1.14975 5.61458 0.75 6.10769 0.75H12.3577C12.8508 0.75 13.2506 1.14975 13.2506 1.64286V12.3571C13.2506 12.8503 12.8508 13.25 12.3577 13.25H9.23269" stroke="black" stroke-linecap="round" stroke-linejoin="round"/>
<path d="M8.11573 7.001C8.97896 7.001 9.67873 6.30122 9.67873 5.438C9.67873 4.57478 8.97896 3.875 8.11573 3.875C7.25251 3.875 6.55273 4.57478 6.55273 5.438C6.55273 6.30122 7.25251 7.001 8.11573 7.001Z" stroke="black" stroke-linecap="round" stroke-linejoin="round"/>
<path d="M2.53516 6.10742L4.35321 6.10744C4.61842 6.10744 4.87277 6.2128 5.0603 6.40033L7.59952 8.93955C7.78706 9.12709 8.04142 9.23244 8.30664 9.23244L9.67802 9.23242" stroke="black" stroke-linecap="round" stroke-linejoin="round"/>
<path d="M6.10714 7.44629L3.72146 9.83197C3.53393 10.0195 3.27957 10.1249 3.01436 10.1249H0.75" stroke="black" stroke-linecap="round" stroke-linejoin="round"/>
<path d="M4.32227 9.23242L5.81509 10.7252C6.00263 10.9127 6.10799 11.1671 6.10799 11.4323V13.2502" stroke="black" stroke-linecap="round" stroke-linejoin="round"/>
</g>
<defs>
<clipPath id="clip0_302_3859">
<rect width="14" height="14" fill="white"/>
</clipPath>
</defs>
</svg>
