<svg width="28" height="29" viewBox="0 0 28 29" fill="none" xmlns="http://www.w3.org/2000/svg">
<g clip-path="url(#clip0_477_3002)">
<path fill-rule="evenodd" clip-rule="evenodd" d="M15.0865 9.35714C15.0865 11.4874 13.3596 13.2143 11.2294 13.2143C9.09912 13.2143 7.37221 11.4874 7.37221 9.35714C7.37221 7.22691 9.09912 5.5 11.2294 5.5C13.3596 5.5 15.0865 7.22691 15.0865 9.35714ZM18.6222 15.1429C19.1548 15.1429 19.5865 15.5746 19.5865 16.1071V18.3571H21.8365C22.369 18.3571 22.8008 18.7889 22.8008 19.3214C22.8008 19.854 22.369 20.2857 21.8365 20.2857H19.5865V22.5357C19.5865 23.0683 19.1548 23.5 18.6222 23.5C18.0897 23.5 17.6579 23.0683 17.6579 22.5357V20.2857H15.4079C14.8754 20.2857 14.4436 19.854 14.4436 19.3214C14.4436 18.7889 14.8754 18.3571 15.4079 18.3571H17.6579V16.1071C17.6579 15.5746 18.0897 15.1429 18.6222 15.1429ZM11.2294 14.5C13.1494 14.5 14.8728 15.3417 16.0508 16.6763V16.75H15.4079C13.9878 16.75 12.8365 17.9013 12.8365 19.3214C12.8365 20.2896 13.3715 21.1327 14.162 21.5714H5.44364C5.0886 21.5714 4.80078 21.2836 4.80078 20.9286C4.80078 17.3781 7.67896 14.5 11.2294 14.5Z" fill="#444444"/>
</g>
<defs>
<clipPath id="clip0_477_3002">
<rect width="18" height="18" fill="white" transform="translate(4.80078 5.5)"/>
</clipPath>
</defs>
</svg>
