<svg width="18" height="18" viewBox="0 0 18 18" fill="none" xmlns="http://www.w3.org/2000/svg">
<path fill-rule="evenodd" clip-rule="evenodd" d="M8.98272 1.92923C8.44491 1.91958 7.9105 2.01615 7.41007 2.21341C6.90966 2.41066 6.45309 2.70472 6.06651 3.07873C5.67994 3.45275 5.37096 3.89935 5.15728 4.39299C4.94452 4.88451 4.83043 5.41301 4.82143 5.94849V6.42857V9.32224V11.5714C4.82143 12.2815 4.24579 12.8571 3.53571 12.8571H1.92857C0.863451 12.8571 0 11.9937 0 10.9286V8.35714C0 7.29202 0.863451 6.42857 1.92857 6.42857H2.89286V5.94081V5.92624C2.90481 5.13473 3.07295 4.35334 3.38741 3.62687C3.70187 2.9004 4.1566 2.24312 4.72551 1.69269C5.29443 1.14226 5.96638 0.709494 6.70284 0.419198C7.43394 0.131016 8.21435 -0.0111461 9 0.000681829C9.78565 -0.0111461 10.5661 0.131016 11.2972 0.419198C12.0336 0.709494 12.7056 1.14226 13.2745 1.69269C13.8434 2.24312 14.2982 2.9004 14.6125 3.62687C14.927 4.35334 15.0951 5.13473 15.107 5.92624L15.1073 5.94081L15.1071 6.42857H16.0714C17.1365 6.42857 18 7.29202 18 8.35714V10.9286C18 11.9937 17.1365 12.8571 16.0714 12.8571H15.1071V13.5C15.1071 14.4377 14.7347 15.337 14.0715 16.0001C13.5028 16.5687 12.7604 16.9237 11.969 17.0133C11.6389 17.6021 11.0088 18 10.2857 18H8.35714C7.29202 18 6.42857 17.1365 6.42857 16.0714C6.42857 15.0063 7.29202 14.1429 8.35714 14.1429H10.2857C10.9825 14.1429 11.593 14.5124 11.9319 15.0663C12.2234 14.9991 12.4929 14.8513 12.7078 14.6364C13.0092 14.3351 13.1786 13.9262 13.1786 13.5V5.9485C13.1696 5.41302 13.0555 4.88451 12.8427 4.39299C12.629 3.89935 12.3201 3.45275 11.9335 3.07873C11.5469 2.70472 11.0903 2.41066 10.5899 2.21341C10.0895 2.01615 9.55509 1.91958 9.01728 1.92923C9.00576 1.92943 8.99424 1.92943 8.98272 1.92923Z" fill="#444444"/>
</svg>
