<svg width="18" height="18" viewBox="0 0 18 18" fill="none" xmlns="http://www.w3.org/2000/svg">
<g clip-path="url(#clip0_580_1995)">
<path fill-rule="evenodd" clip-rule="evenodd" d="M0.268761 0.272667C0.645338 -0.10391 1.25589 -0.10391 1.63247 0.272667L17.714 16.3542C18.0905 16.7307 18.0905 17.3413 17.714 17.7179C17.3374 18.0944 16.7268 18.0944 16.3503 17.7179L0.268761 1.63637C-0.107816 1.2598 -0.107816 0.649244 0.268761 0.272667Z" fill="#FF4242"/>
<path fill-rule="evenodd" clip-rule="evenodd" d="M7.41007 2.21341C7.9105 2.01615 8.44491 1.91958 8.98272 1.92923C8.99424 1.92943 9.00576 1.92943 9.01728 1.92923C9.55509 1.91958 10.0895 2.01615 10.5899 2.21341C11.0903 2.41066 11.5469 2.70472 11.9335 3.07873C12.3201 3.45275 12.629 3.89935 12.8427 4.39299C13.0555 4.88451 13.1696 5.41302 13.1786 5.9485V13.5C13.1786 13.7513 13.1197 13.9966 13.0096 14.2173L14.4058 15.6136C14.8585 15.0066 15.1071 14.2661 15.1071 13.5V12.8571H16.0714C17.1365 12.8571 18 11.9937 18 10.9286V8.35714C18 7.29202 17.1365 6.42857 16.0714 6.42857H15.1071L15.1073 5.94081L15.107 5.92624C15.0951 5.13473 14.927 4.35334 14.6125 3.62687C14.2982 2.9004 13.8434 2.24312 13.2745 1.69269C12.7056 1.14226 12.0336 0.709494 11.2972 0.419198C10.5661 0.131016 9.78565 -0.0111461 9 0.000681829C8.21435 -0.0111461 7.43394 0.131016 6.70284 0.419198C5.96638 0.709494 5.29443 1.14226 4.72551 1.69269C4.1566 2.24312 3.70187 2.9004 3.38741 3.62687C3.2869 3.85905 3.20135 4.09685 3.13106 4.33879L4.82143 6.02915V5.94849C4.83043 5.41301 4.94452 4.88451 5.15728 4.39299C5.37096 3.89935 5.67994 3.45275 6.06651 3.07873C6.45309 2.70472 6.90966 2.41066 7.41007 2.21341ZM4.82143 8.75657L2.49343 6.42857H1.92857C0.863451 6.42857 0 7.29202 0 8.35714V10.9286C0 11.9937 0.863451 12.8571 1.92857 12.8571H3.53571C4.24579 12.8571 4.82143 12.2815 4.82143 11.5714V9.32224V8.75657ZM12.8581 16.7933L10.2077 14.1429H8.35714C7.29202 14.1429 6.42857 15.0063 6.42857 16.0714C6.42857 17.1365 7.29202 18 8.35714 18H10.2857C11.0088 18 11.6389 17.6021 11.969 17.0133C12.2751 16.9787 12.5739 16.9043 12.8581 16.7933Z" fill="#FF4242"/>
</g>
<defs>
<clipPath id="clip0_580_1995">
<rect width="18" height="18" fill="white"/>
</clipPath>
</defs>
</svg>
