<svg width="22" height="22" viewBox="0 0 22 22" fill="none" xmlns="http://www.w3.org/2000/svg">
<path fill-rule="evenodd" clip-rule="evenodd" d="M8.32147 3.10947C9.03185 2.39909 9.99533 2 11 2C12.0046 2 12.9681 2.39909 13.6785 3.10947C14.3888 3.81985 14.7879 4.78333 14.7879 5.78797V10.1911C14.7879 11.0641 14.4866 11.906 13.9415 12.5778L15.2542 13.8904C16.008 13.0391 16.4643 11.9209 16.4643 10.6957C16.4643 10.1631 16.8961 9.73141 17.4286 9.73141C17.9611 9.73141 18.3929 10.1631 18.3929 10.6957C18.3929 12.4539 17.7199 14.0554 16.6195 15.2559L19.7176 18.3539C20.0941 18.7305 20.0941 19.341 19.7176 19.7176C19.341 20.0941 18.7305 20.0941 18.3539 19.7176L12.362 13.7257C12.361 13.7261 12.3599 13.7265 12.3589 13.7269L7.212 8.57999V8.57571L2.28243 3.64614C1.90586 3.26956 1.90586 2.65901 2.28243 2.28243C2.65901 1.90586 3.26956 1.90586 3.64614 2.28243L7.212 5.84829V5.78797C7.212 4.78333 7.61109 3.81985 8.32147 3.10947ZM11.9643 16.4813C11.9643 15.9487 11.5326 15.517 11 15.517L10.9824 15.5171H10.3572C7.69435 15.5171 5.53572 13.3585 5.53572 10.6957C5.53572 10.1631 5.10399 9.73141 4.57143 9.73141C4.03888 9.73141 3.60715 10.1631 3.60715 10.6957C3.60715 14.3159 6.45705 17.2705 10.0357 17.4382V18.9973C10.0357 19.5298 10.4675 19.9616 11 19.9616C11.5326 19.9616 11.9643 19.5298 11.9643 18.9973V16.4813Z" fill="#FF4242"/>
</svg>
