<svg width="18" height="18" viewBox="0 0 18 18" fill="none" xmlns="http://www.w3.org/2000/svg">
<path fill-rule="evenodd" clip-rule="evenodd" d="M9.53546 0C8.53083 0 7.56735 0.399087 6.85697 1.10947C6.14659 1.81985 5.7475 2.78333 5.7475 3.78796V8.19109C5.7475 9.19572 6.14659 10.1592 6.85697 10.8696C7.56735 11.58 8.53083 11.9791 9.53546 11.9791C10.5401 11.9791 11.5036 11.58 12.214 10.8696C12.9243 10.1592 13.3234 9.19572 13.3234 8.19109V3.78796C13.3234 2.78333 12.9243 1.81985 12.214 1.10947C11.5036 0.399087 10.5401 0 9.53546 0ZM8.57115 15.4382V16.9973C8.57115 17.5298 9.00288 17.9616 9.53544 17.9616C10.068 17.9616 10.4997 17.5298 10.4997 16.9973V15.4382C14.0784 15.2704 16.9283 12.3158 16.9283 8.69568C16.9283 8.16312 16.4965 7.7314 15.964 7.7314C15.4315 7.7314 14.9997 8.16312 14.9997 8.69568C14.9997 11.3585 12.8411 13.5171 10.1783 13.5171H9.55301C9.54716 13.517 9.54131 13.517 9.53544 13.517C9.52956 13.517 9.52371 13.517 9.51786 13.5171H8.89258C6.22977 13.5171 4.07115 11.3585 4.07115 8.69568C4.07115 8.16312 3.63942 7.7314 3.10686 7.7314C2.57431 7.7314 2.14258 8.16312 2.14258 8.69568C2.14258 12.3158 4.99248 15.2704 8.57115 15.4382Z" fill="#444444"/>
</svg>
