<svg width="14" height="14" viewBox="0 0 14 14" fill="none" xmlns="http://www.w3.org/2000/svg">
<path d="M3.6875 5.65625C3.6875 5.10397 4.13522 4.65625 4.6875 4.65625H12.4375C12.9898 4.65625 13.4375 5.10397 13.4375 5.65625V11.6562C13.4375 12.2085 12.9898 12.6562 12.4375 12.6562H4.6875C4.13522 12.6562 3.6875 12.2085 3.6875 11.6562V5.65625Z" stroke="#444444" stroke-linecap="round" stroke-linejoin="round"/>
<path d="M10.5 2.875V2.59375C10.5 2.04147 10.0523 1.59375 9.5 1.59375H1.75C1.19772 1.59375 0.75 2.04147 0.75 2.59375V8.59375C0.75 9.14603 1.19772 9.59375 1.75 9.59375H1.9375" stroke="#444444" stroke-linecap="round" stroke-linejoin="round"/>
<path d="M7.5 6.78125L10.5 8.65625L7.5 10.5312V6.78125Z" stroke="#444444" stroke-linecap="round" stroke-linejoin="round"/>
</svg>
