<svg width="14" height="14" viewBox="0 0 14 14" fill="none" xmlns="http://www.w3.org/2000/svg">
<g clip-path="url(#clip0_769_3084)">
<g clip-path="url(#clip1_769_3084)">
<path fill-rule="evenodd" clip-rule="evenodd" d="M0.03125 1.92383C0.03125 1.37154 0.478965 0.923828 1.03125 0.923828H9.74198C10.2942 0.923828 10.742 1.37154 10.742 1.92383V3.03814H4.2583C3.01566 3.03814 2.0083 4.0455 2.0083 5.28814V9.71212H1.03125C0.478966 9.71212 0.03125 9.26441 0.03125 8.71212V1.92383ZM3.2583 5.28814C3.2583 4.73586 3.70601 4.28814 4.2583 4.28814H12.969C13.5213 4.28814 13.969 4.73586 13.969 5.28814V12.0764C13.969 12.6287 13.5213 13.0764 12.969 13.0764H4.2583C3.70602 13.0764 3.2583 12.6287 3.2583 12.0764V5.28814ZM6.93164 6.88094C6.93164 6.48822 7.36361 6.2488 7.69664 6.45694L10.5787 8.25825C10.892 8.45409 10.892 8.91042 10.5787 9.10625L7.69664 10.9075C7.36361 11.1157 6.93164 10.8763 6.93164 10.4835V6.88094Z" fill="#444444"/>
</g>
</g>
<defs>
<clipPath id="clip0_769_3084">
<rect width="14" height="14" fill="white"/>
</clipPath>
<clipPath id="clip1_769_3084">
<rect width="14" height="14" fill="white"/>
</clipPath>
</defs>
</svg>
