<svg width="14" height="15" viewBox="0 0 14 15" fill="none" xmlns="http://www.w3.org/2000/svg">
<g clip-path="url(#clip0_475_1544)">
<path fill-rule="evenodd" clip-rule="evenodd" d="M9.03074 2.53072C9.03074 3.65226 8.12156 4.56144 7.00002 4.56144C5.87848 4.56144 4.9693 3.65226 4.9693 2.53072C4.9693 1.40919 5.87848 0.5 7.00002 0.5C8.12156 0.5 9.03074 1.40919 9.03074 2.53072ZM9.51294 6.40257C10.1794 7.06903 10.5539 7.97294 10.5539 8.91546V9.9385C10.5539 10.2146 10.33 10.4385 10.0539 10.4385H9.03077L8.57784 14.062C8.54656 14.3122 8.33386 14.4999 8.0817 14.4999H5.9184C5.66624 14.4999 5.45354 14.3122 5.42226 14.062L4.96933 10.4385H3.94629C3.67015 10.4385 3.44629 10.2146 3.44629 9.9385V8.91546C3.44629 7.97294 3.8207 7.06903 4.48716 6.40257C5.15362 5.73611 6.05753 5.36169 7.00005 5.36169C7.94257 5.36169 8.84648 5.73611 9.51294 6.40257Z" fill="#4D94E1"/>
</g>
<defs>
<clipPath id="clip0_475_1544">
<rect width="14" height="14" fill="white" transform="translate(0 0.5)"/>
</clipPath>
</defs>
</svg>
