<svg width="14" height="11" viewBox="0 0 14 11" fill="none" xmlns="http://www.w3.org/2000/svg">
<path fill-rule="evenodd" clip-rule="evenodd" d="M7.40962 0.21327C7.31605 0.0796099 7.16316 0 7 0C6.83684 0 6.68395 0.0796099 6.59038 0.21327L3.43215 4.72504L0.853553 2.14645C0.710554 2.00345 0.495495 1.96067 0.308658 2.03806C0.121821 2.11545 0 2.29777 0 2.5V9C0 9.5304 0.210714 10.0391 0.585786 10.4142C0.960859 10.7893 1.46957 11 2 11H12C12.5304 11 13.0391 10.7893 13.4142 10.4142C13.7893 10.0391 14 9.5304 14 9V2.5C14 2.29777 13.8782 2.11545 13.6913 2.03806C13.5045 1.96067 13.2894 2.00345 13.1464 2.14645L10.5679 4.72504L7.40962 0.21327Z" fill="#FF9100"/>
</svg>
