<svg width="15" height="14" viewBox="0 0 15 14" fill="none" xmlns="http://www.w3.org/2000/svg">
<path d="M3 5.00026H1.5C0.955333 5.00026 0.5 5.45559 0.5 6.00026V8.00026C0.5 8.54492 0.955333 9.00026 1.5 9.00026H3L6.91 11.8102C7.5553 12.2567 8.48254 11.7866 8.5 11.0002V3.00024C8.51874 2.2134 7.6471 1.74251 7 2.19024L3 5.00026Z" stroke="#222222" stroke-linecap="round" stroke-linejoin="round"/>
<path d="M10.5 5.5C10.8476 5.92029 11.0259 6.45518 11 7C11.0259 7.54482 10.8476 8.07971 10.5 8.5" stroke="#222222" stroke-linecap="round" stroke-linejoin="round"/>
<path d="M13.002 10.5C13.6417 9.44348 13.987 8.235 14.002 7C13.987 5.765 13.6417 4.55652 13.002 3.5" stroke="#222222" stroke-linecap="round" stroke-linejoin="round"/>
</svg>
