<svg width="14" height="15" viewBox="0 0 14 15" fill="none" xmlns="http://www.w3.org/2000/svg">
<g clip-path="url(#clip0_619_2337)">
<path d="M1 3.84766H13" stroke="white" stroke-linecap="round" stroke-linejoin="round"/>
<path d="M2.5 3.84766H11.5V12.8477C11.5 13.1129 11.3946 13.3673 11.2071 13.5548C11.0196 13.7423 10.7652 13.8477 10.5 13.8477H3.5C3.23478 13.8477 2.98043 13.7423 2.79289 13.5548C2.60536 13.3673 2.5 13.1129 2.5 12.8477V3.84766Z" stroke="white" stroke-linecap="round" stroke-linejoin="round"/>
<path d="M4.5 3.84766V3.34766C4.5 2.68462 4.76339 2.04873 5.23223 1.57989C5.70107 1.11105 6.33696 0.847656 7 0.847656C7.66304 0.847656 8.29893 1.11105 8.76777 1.57989C9.23661 2.04873 9.5 2.68462 9.5 3.34766V3.84766" stroke="white" stroke-linecap="round" stroke-linejoin="round"/>
<path d="M5.5 6.84961V10.8511" stroke="white" stroke-linecap="round" stroke-linejoin="round"/>
<path d="M8.5 6.84961V10.8511" stroke="white" stroke-linecap="round" stroke-linejoin="round"/>
</g>
<defs>
<clipPath id="clip0_619_2337">
<rect width="14" height="14" fill="white" transform="translate(0 0.347656)"/>
</clipPath>
</defs>
</svg>
