<svg width="14" height="14" viewBox="0 0 14 14" fill="none" xmlns="http://www.w3.org/2000/svg">
<g clip-path="url(#clip0_769_4190)">
<path fill-rule="evenodd" clip-rule="evenodd" d="M8 3.5C8 5.15685 6.65685 6.5 5 6.5C3.34315 6.5 2 5.15685 2 3.5C2 1.84315 3.34315 0.5 5 0.5C6.65685 0.5 8 1.84315 8 3.5ZM5 7.49997C2.23858 7.49997 0 9.73857 0 12.5C0 12.7761 0.223858 13 0.5 13H9.5C9.77614 13 10 12.7761 10 12.5C10 9.73857 7.76142 7.49997 5 7.49997ZM13.5001 13H11.1776C11.2248 12.8416 11.2501 12.6737 11.2501 12.5C11.2501 10.4589 10.2717 8.64634 8.75832 7.50571C8.83843 7.5019 8.91903 7.49997 9.00008 7.49997C11.7615 7.49997 14.0001 9.73857 14.0001 12.5C14.0001 12.7761 13.7762 13 13.5001 13ZM9.00008 6.5C8.69835 6.5 8.40703 6.45545 8.13233 6.37258C8.82642 5.61615 9.25008 4.60755 9.25008 3.5C9.25008 2.39245 8.82642 1.38385 8.13232 0.62741C8.40703 0.54454 8.69835 0.5 9.00008 0.5C10.6569 0.5 12.0001 1.84315 12.0001 3.5C12.0001 5.15685 10.6569 6.5 9.00008 6.5Z" fill="#444444"/>
</g>
<defs>
<clipPath id="clip0_769_4190">
<rect width="14" height="14" fill="white"/>
</clipPath>
</defs>
</svg>
