<svg width="15" height="14" viewBox="0 0 15 14" fill="none" xmlns="http://www.w3.org/2000/svg">
<g clip-path="url(#clip0_653_5495)">
<path d="M5.5 6C6.88071 6 8 4.88071 8 3.5C8 2.11929 6.88071 1 5.5 1C4.11929 1 3 2.11929 3 3.5C3 4.88071 4.11929 6 5.5 6Z" stroke="#444444" stroke-linecap="round" stroke-linejoin="round"/>
<path d="M1 13.0001H5.5H10V12.458C9.99204 11.6958 9.79102 10.948 9.41573 10.2846C9.04043 9.62112 8.5031 9.06362 7.85393 8.66413C7.20475 8.26463 6.46491 8.0362 5.70352 8.00015C5.63564 7.99694 5.56778 7.99526 5.5 7.99512C5.43222 7.99526 5.36436 7.99694 5.29648 8.00015C4.53509 8.0362 3.79525 8.26463 3.14607 8.66413C2.4969 9.06362 1.95957 9.62112 1.58427 10.2846C1.20898 10.948 1.00796 11.6958 1 12.458V13.0001Z" stroke="#444444" stroke-linecap="round" stroke-linejoin="round"/>
<path d="M9.5 6C10.8807 6 12 4.88071 12 3.5C12 2.11929 10.8807 1 9.5 1" stroke="#444444" stroke-linecap="round" stroke-linejoin="round"/>
<path d="M12 13H14V12.4578C13.992 11.6956 13.791 10.9478 13.4157 10.2844C13.0404 9.62088 12.5031 9.0634 11.8539 8.66391C11.4343 8.40566 10.9767 8.2189 10.5 8.10938" stroke="#444444" stroke-linecap="round" stroke-linejoin="round"/>
</g>
<defs>
<clipPath id="clip0_653_5495">
<rect width="14" height="14" fill="white" transform="translate(0.5)"/>
</clipPath>
</defs>
</svg>
