<svg width="110" height="19" viewBox="0 0 110 19" fill="none" xmlns="http://www.w3.org/2000/svg">
<path d="M7.04 7.54L7.92 5.42C9.8 0.899999 10.12 0.599999 13.14 0.599999C16.16 0.599999 16.24 0.899999 14.38 5.42C13.58 7.32 12.96 8.48 12.4 9.18C12.9 9.96 13.58 11.16 14.34 12.9C16.6 18.02 16.56 18.36 13.54 18.36C10.52 18.36 10.16 18.02 7.84 12.9L7.04 11.1C7 17.86 6.64 18.36 3.92 18.36C1 18.36 0.8 17.8 0.8 9.48C0.8 1.16 1 0.599999 3.92 0.599999C6.6 0.599999 7 1.08 7.04 7.54ZM14.1 1.84C14.32 1.9 14.38 2.22 14.64 2.22C14.84 2.22 14.96 2.06 14.96 1.88C14.96 1.58 14.42 1.2 14.16 1.2C13.98 1.2 13.86 1.34 13.86 1.54C13.86 1.68 13.94 1.8 14.1 1.84ZM5.06 1.94C5.28 2 5.34 2.32 5.6 2.32C5.8 2.32 5.92 2.16 5.92 1.98C5.92 1.68 5.38 1.3 5.12 1.3C4.94 1.3 4.82 1.44 4.82 1.64C4.82 1.78 4.9 1.9 5.06 1.94ZM17.0305 2.5C17.0305 0.719999 17.2305 0.599999 20.1505 0.599999C23.0705 0.599999 23.2705 0.719999 23.2705 2.5C23.2705 4.28 23.0705 4.4 20.1505 4.4C17.2305 4.4 17.0305 4.28 17.0305 2.5ZM21.8305 1.72C22.0505 1.78 22.1105 2.1 22.3705 2.1C22.5705 2.1 22.6905 1.94 22.6905 1.76C22.6905 1.46 22.1505 1.08 21.8905 1.08C21.7105 1.08 21.5905 1.22 21.5905 1.42C21.5905 1.56 21.6705 1.68 21.8305 1.72ZM20.1505 18.36C17.2505 18.36 17.0305 17.94 17.0305 11.82C17.0305 5.72 17.2505 5.3 20.1505 5.3C23.0905 5.3 23.2705 5.72 23.2705 11.82C23.2705 17.94 23.0905 18.36 20.1505 18.36ZM21.4305 6.46C21.4305 6.68 21.7705 6.96 21.9705 6.96C22.1705 6.96 22.3105 6.8 22.3105 6.6C22.3105 6.36 22.0105 6.1 21.7905 6.1C21.5905 6.1 21.4305 6.26 21.4305 6.46ZM24.5625 11.86C24.5625 6.74 25.5825 5.2 31.4425 5.2C36.3825 5.2 37.8825 6.3 37.8825 10.5C37.8825 11.02 37.7425 11.3 36.9425 11.3H33.3025C32.5825 11.3 32.4425 11.14 32.4425 10.64V10.24C32.4425 9.78 32.1825 9.64 31.3625 9.64C30.5625 9.64 30.3025 9.96 30.3025 10.64V13.12C30.3025 13.76 30.5425 14.1 31.3625 14.1C32.1825 14.1 32.4425 13.86 32.4425 13.52V13.14C32.4425 12.6 32.7425 12.38 33.4025 12.38H36.9425C37.7425 12.38 37.8825 12.64 37.8825 13.16C37.8825 17.4 36.1225 18.46 31.3225 18.46C25.4425 18.46 24.5625 16.7 24.5625 11.86ZM35.0825 6.92C35.6025 7.24 35.9025 7.56 36.0625 7.92C36.2625 8.36 36.9425 8.16 36.6825 7.62C36.4225 7.08 35.9425 6.66 35.4825 6.34C35.2825 6.2 35.0225 6.16 34.8625 6.36C34.6825 6.6 34.8625 6.78 35.0825 6.92ZM44.8189 13.02C44.7189 17.96 44.1989 18.36 41.8989 18.36C39.1789 18.36 38.9789 17.8 38.9789 9.48C38.9789 1.16 39.1789 0.599999 41.8989 0.599999C44.6589 0.599999 44.8589 1.16 44.8589 9.48V10.06L45.4389 8.64C46.8589 5.26 47.0989 5.04 49.6589 5.04C52.2189 5.04 52.2789 5.26 50.8989 8.64C50.2989 10.08 49.8189 10.94 49.3989 11.46C49.7789 12.06 50.2989 12.96 50.8589 14.26C52.5589 18.1 52.5189 18.36 49.9589 18.36C47.3989 18.36 47.1189 18.1 45.3789 14.26L44.8189 13.02ZM42.8389 1.66C42.8389 1.88 43.1789 2.16 43.3789 2.16C43.5789 2.16 43.7189 2 43.7189 1.8C43.7189 1.56 43.4189 1.3 43.1989 1.3C42.9989 1.3 42.8389 1.46 42.8389 1.66ZM50.3389 5.9C50.3389 6.12 50.6789 6.4 50.8789 6.4C51.0789 6.4 51.2189 6.24 51.2189 6.04C51.2189 5.8 50.9189 5.54 50.6989 5.54C50.4989 5.54 50.3389 5.7 50.3389 5.9ZM55.9061 5.36C52.4861 5.24 52.3461 4.72 52.3461 2.98C52.3461 0.799999 52.5661 0.599999 59.2661 0.599999C65.9861 0.599999 66.2061 0.799999 66.2061 2.98C66.2061 4.72 66.0661 5.24 62.6061 5.36C62.6461 6.46 62.6661 7.82 62.6661 9.48C62.6661 17.8 62.4461 18.36 59.2661 18.36C56.0861 18.36 55.8661 17.8 55.8661 9.48C55.8661 7.82 55.8661 6.46 55.9061 5.36ZM64.7661 2.12C64.9861 2.18 65.0461 2.5 65.3061 2.5C65.5061 2.5 65.6261 2.34 65.6261 2.16C65.6261 1.86 65.0861 1.48 64.8261 1.48C64.6461 1.48 64.5261 1.62 64.5261 1.82C64.5261 1.96 64.6061 2.08 64.7661 2.12ZM74.4525 17.52C73.6925 18.02 72.1325 18.42 70.4325 18.42C67.6925 18.42 65.8125 17.12 65.8125 14.34C65.8125 6.02 65.9925 5.3 68.7325 5.3C71.2925 5.3 71.6125 5.78 71.6525 12.6C71.6525 13.22 71.9525 13.56 72.4925 13.56H73.2325C73.7725 13.56 74.0125 13.26 74.0125 12.6V11.84C74.0125 5.72 74.1925 5.3 76.9325 5.3C79.6725 5.3 79.8525 5.72 79.8525 11.84C79.8525 17.84 79.6725 18.36 76.9325 18.36C75.6325 18.36 74.9125 18.12 74.4525 17.52ZM77.9325 6.44C77.9325 6.66 78.2725 6.94 78.4725 6.94C78.6725 6.94 78.8125 6.78 78.8125 6.58C78.8125 6.34 78.5125 6.08 78.2925 6.08C78.0925 6.08 77.9325 6.24 77.9325 6.44ZM86.0492 17.54C85.6292 18.26 84.9692 18.36 83.8692 18.36C81.2292 18.36 81.0492 17.8 81.0492 9.48C81.0492 1.16 81.2292 0.599999 83.8692 0.599999C86.0892 0.599999 86.5692 0.979999 86.6692 6C87.2492 5.58 88.4492 5.24 89.5892 5.24H90.3492C93.0892 5.24 94.5692 6.54 94.5692 9.32V14.38C94.5692 17.16 93.0892 18.46 90.3492 18.46H89.3492C88.2492 18.46 86.7492 17.98 86.0492 17.54ZM84.7092 1.66C84.7092 1.88 85.0492 2.16 85.2492 2.16C85.4492 2.16 85.5892 2 85.5892 1.8C85.5892 1.56 85.2892 1.3 85.0692 1.3C84.8692 1.3 84.7092 1.46 84.7092 1.66ZM91.9692 6.92C92.4892 7.24 92.7892 7.56 92.9492 7.92C93.1492 8.36 93.8292 8.16 93.5692 7.62C93.3092 7.08 92.8292 6.66 92.3692 6.34C92.1692 6.2 91.9092 6.16 91.7492 6.36C91.5692 6.6 91.7492 6.78 91.9692 6.92ZM86.6692 13.58C86.7492 13.9 86.9492 14.1 87.3492 14.1H88.2692C88.8092 14.1 89.0092 13.76 89.0092 13.14V10.56C89.0092 9.94 88.8092 9.6 88.2692 9.6H87.3492C87.0092 9.6 86.7892 9.76 86.6892 10.02C86.6892 11.44 86.6692 12.6 86.6692 13.58ZM101.438 13.02V13.84C101.438 14.46 101.538 14.8 102.078 14.8H102.798C103.198 14.78 103.378 14.56 103.418 14.14C103.438 13.9 103.598 13.74 103.838 13.74H108.898C109.138 13.74 109.298 13.9 109.298 14.14V14.38C109.298 17.16 107.818 18.46 105.078 18.46H99.7981C97.0581 18.46 95.5781 17.16 95.5781 14.38V9.32C95.5781 6.54 97.0581 5.24 99.7981 5.24H105.078C107.818 5.24 109.298 6.54 109.298 9.32V11.02C109.298 12.22 108.498 13.02 107.298 13.02H101.438ZM106.578 6.76C107.098 7.08 107.398 7.4 107.558 7.76C107.758 8.2 108.438 8 108.178 7.46C107.918 6.92 107.438 6.5 106.978 6.18C106.778 6.04 106.518 6 106.358 6.2C106.178 6.44 106.358 6.62 106.578 6.76ZM108.158 9.3C108.338 9.38 108.538 9.3 108.618 9.12C108.738 8.9 108.578 8.54 108.378 8.44C108.198 8.36 107.978 8.44 107.898 8.62C107.798 8.82 107.978 9.22 108.158 9.3ZM101.438 10.6H103.438V9.86C103.438 9.24 103.338 8.9 102.798 8.9H102.078C101.538 8.9 101.438 9.24 101.438 9.86V10.6Z" fill="url(#paint0_linear_270_1360)"/>
<defs>
<linearGradient id="paint0_linear_270_1360" x1="-7.61236e-06" y1="-5" x2="110" y2="-5" gradientUnits="userSpaceOnUse">
<stop stop-color="#FF9100"/>
<stop offset="1" stop-color="#FF5000"/>
</linearGradient>
</defs>
</svg>
