<svg width="14" height="14" viewBox="0 0 14 14" fill="none" xmlns="http://www.w3.org/2000/svg">
<g clip-path="url(#clip0_852_4306)">
<path d="M12.5 0.5H1.5C0.947715 0.5 0.5 0.947715 0.5 1.5V12.5C0.5 13.0523 0.947715 13.5 1.5 13.5H12.5C13.0523 13.5 13.5 13.0523 13.5 12.5V1.5C13.5 0.947715 13.0523 0.5 12.5 0.5Z" stroke="#444444" stroke-linecap="round" stroke-linejoin="round"/>
<path d="M5.23047 9.22981V4.90981C5.23085 4.83753 5.25032 4.76664 5.28693 4.70431C5.32354 4.64198 5.37597 4.59044 5.43891 4.55491C5.50186 4.51938 5.57307 4.50112 5.64535 4.50198C5.71763 4.50284 5.78839 4.52279 5.85047 4.55981L9.55047 6.70981C9.61277 6.74581 9.66449 6.79756 9.70045 6.85988C9.73642 6.92219 9.75535 6.99287 9.75535 7.06481C9.75535 7.13676 9.73642 7.20744 9.70045 7.26975C9.66449 7.33207 9.61277 7.38382 9.55047 7.41981L5.85047 9.57981C5.78839 9.61684 5.71763 9.63679 5.64535 9.63765C5.57307 9.63851 5.50186 9.62025 5.43891 9.58472C5.37597 9.54919 5.32354 9.49764 5.28693 9.43532C5.25032 9.37299 5.23085 9.30209 5.23047 9.22981Z" stroke="#444444" stroke-linecap="round" stroke-linejoin="round"/>
</g>
<defs>
<clipPath id="clip0_852_4306">
<rect width="14" height="14" fill="white"/>
</clipPath>
</defs>
</svg>
