<svg width="220" height="57" viewBox="0 0 220 57" fill="none" xmlns="http://www.w3.org/2000/svg">
<path d="M14.08 25.08L15.84 20.84C19.6 11.8 20.24 11.2 26.28 11.2C32.32 11.2 32.48 11.8 28.76 20.84C27.16 24.64 25.92 26.96 24.8 28.36C25.8 29.92 27.16 32.32 28.68 35.8C33.2 46.04 33.12 46.72 27.08 46.72C21.04 46.72 20.32 46.04 15.68 35.8L14.08 32.2C14 45.72 13.28 46.72 7.84 46.72C2 46.72 1.6 45.6 1.6 28.96C1.6 12.32 2 11.2 7.84 11.2C13.2 11.2 14 12.16 14.08 25.08ZM28.2 13.68C28.64 13.8 28.76 14.44 29.28 14.44C29.68 14.44 29.92 14.12 29.92 13.76C29.92 13.16 28.84 12.4 28.32 12.4C27.96 12.4 27.72 12.68 27.72 13.08C27.72 13.36 27.88 13.6 28.2 13.68ZM10.12 13.88C10.56 14 10.68 14.64 11.2 14.64C11.6 14.64 11.84 14.32 11.84 13.96C11.84 13.36 10.76 12.6 10.24 12.6C9.88 12.6 9.64 12.88 9.64 13.28C9.64 13.56 9.8 13.8 10.12 13.88ZM34.0609 15C34.0609 11.44 34.4609 11.2 40.3009 11.2C46.1409 11.2 46.5409 11.44 46.5409 15C46.5409 18.56 46.1409 18.8 40.3009 18.8C34.4609 18.8 34.0609 18.56 34.0609 15ZM43.6609 13.44C44.1009 13.56 44.2209 14.2 44.7409 14.2C45.1409 14.2 45.3809 13.88 45.3809 13.52C45.3809 12.92 44.3009 12.16 43.7809 12.16C43.4209 12.16 43.1809 12.44 43.1809 12.84C43.1809 13.12 43.3409 13.36 43.6609 13.44ZM40.3009 46.72C34.5009 46.72 34.0609 45.88 34.0609 33.64C34.0609 21.44 34.5009 20.6 40.3009 20.6C46.1809 20.6 46.5409 21.44 46.5409 33.64C46.5409 45.88 46.1809 46.72 40.3009 46.72ZM42.8609 22.92C42.8609 23.36 43.5409 23.92 43.9409 23.92C44.3409 23.92 44.6209 23.6 44.6209 23.2C44.6209 22.72 44.0209 22.2 43.5809 22.2C43.1809 22.2 42.8609 22.52 42.8609 22.92ZM49.125 33.72C49.125 23.48 51.165 20.4 62.885 20.4C72.765 20.4 75.765 22.6 75.765 31C75.765 32.04 75.485 32.6 73.885 32.6H66.605C65.165 32.6 64.885 32.28 64.885 31.28V30.48C64.885 29.56 64.365 29.28 62.725 29.28C61.125 29.28 60.605 29.92 60.605 31.28V36.24C60.605 37.52 61.085 38.2 62.725 38.2C64.365 38.2 64.885 37.72 64.885 37.04V36.28C64.885 35.2 65.485 34.76 66.805 34.76H73.885C75.485 34.76 75.765 35.28 75.765 36.32C75.765 44.8 72.245 46.92 62.645 46.92C50.885 46.92 49.125 43.4 49.125 33.72ZM70.165 23.84C71.205 24.48 71.805 25.12 72.125 25.84C72.525 26.72 73.885 26.32 73.365 25.24C72.845 24.16 71.885 23.32 70.965 22.68C70.565 22.4 70.045 22.32 69.725 22.72C69.365 23.2 69.725 23.56 70.165 23.84ZM89.6378 36.04C89.4378 45.92 88.3978 46.72 83.7978 46.72C78.3578 46.72 77.9578 45.6 77.9578 28.96C77.9578 12.32 78.3578 11.2 83.7978 11.2C89.3178 11.2 89.7178 12.32 89.7178 28.96V30.12L90.8778 27.28C93.7178 20.52 94.1978 20.08 99.3178 20.08C104.438 20.08 104.558 20.52 101.798 27.28C100.598 30.16 99.6378 31.88 98.7978 32.92C99.5578 34.12 100.598 35.92 101.718 38.52C105.118 46.2 105.038 46.72 99.9178 46.72C94.7978 46.72 94.2378 46.2 90.7578 38.52L89.6378 36.04ZM85.6778 13.32C85.6778 13.76 86.3578 14.32 86.7578 14.32C87.1578 14.32 87.4378 14 87.4378 13.6C87.4378 13.12 86.8378 12.6 86.3978 12.6C85.9978 12.6 85.6778 12.92 85.6778 13.32ZM100.678 21.8C100.678 22.24 101.358 22.8 101.758 22.8C102.158 22.8 102.438 22.48 102.438 22.08C102.438 21.6 101.838 21.08 101.398 21.08C100.998 21.08 100.678 21.4 100.678 21.8ZM111.812 20.72C104.972 20.48 104.692 19.44 104.692 15.96C104.692 11.6 105.132 11.2 118.532 11.2C131.972 11.2 132.412 11.6 132.412 15.96C132.412 19.44 132.132 20.48 125.212 20.72C125.292 22.92 125.332 25.64 125.332 28.96C125.332 45.6 124.892 46.72 118.532 46.72C112.172 46.72 111.732 45.6 111.732 28.96C111.732 25.64 111.732 22.92 111.812 20.72ZM129.532 14.24C129.972 14.36 130.092 15 130.612 15C131.012 15 131.252 14.68 131.252 14.32C131.252 13.72 130.172 12.96 129.652 12.96C129.292 12.96 129.052 13.24 129.052 13.64C129.052 13.92 129.212 14.16 129.532 14.24ZM148.905 45.04C147.385 46.04 144.265 46.84 140.865 46.84C135.385 46.84 131.625 44.24 131.625 38.68C131.625 22.04 131.985 20.6 137.465 20.6C142.585 20.6 143.225 21.56 143.305 35.2C143.305 36.44 143.905 37.12 144.985 37.12H146.465C147.545 37.12 148.025 36.52 148.025 35.2V33.68C148.025 21.44 148.385 20.6 153.865 20.6C159.345 20.6 159.705 21.44 159.705 33.68C159.705 45.68 159.345 46.72 153.865 46.72C151.265 46.72 149.825 46.24 148.905 45.04ZM155.865 22.88C155.865 23.32 156.545 23.88 156.945 23.88C157.345 23.88 157.625 23.56 157.625 23.16C157.625 22.68 157.025 22.16 156.585 22.16C156.185 22.16 155.865 22.48 155.865 22.88ZM172.098 45.08C171.258 46.52 169.938 46.72 167.738 46.72C162.458 46.72 162.098 45.6 162.098 28.96C162.098 12.32 162.458 11.2 167.738 11.2C172.178 11.2 173.138 11.96 173.338 22C174.498 21.16 176.898 20.48 179.178 20.48H180.698C186.178 20.48 189.138 23.08 189.138 28.64V38.76C189.138 44.32 186.178 46.92 180.698 46.92H178.698C176.498 46.92 173.498 45.96 172.098 45.08ZM169.418 13.32C169.418 13.76 170.098 14.32 170.498 14.32C170.898 14.32 171.178 14 171.178 13.6C171.178 13.12 170.578 12.6 170.138 12.6C169.738 12.6 169.418 12.92 169.418 13.32ZM183.938 23.84C184.978 24.48 185.578 25.12 185.898 25.84C186.298 26.72 187.658 26.32 187.138 25.24C186.618 24.16 185.658 23.32 184.738 22.68C184.338 22.4 183.818 22.32 183.498 22.72C183.138 23.2 183.498 23.56 183.938 23.84ZM173.338 37.16C173.498 37.8 173.898 38.2 174.698 38.2H176.538C177.618 38.2 178.018 37.52 178.018 36.28V31.12C178.018 29.88 177.618 29.2 176.538 29.2H174.698C174.018 29.2 173.578 29.52 173.378 30.04C173.378 32.88 173.338 35.2 173.338 37.16ZM202.876 36.04V37.68C202.876 38.92 203.076 39.6 204.156 39.6H205.596C206.396 39.56 206.756 39.12 206.836 38.28C206.876 37.8 207.196 37.48 207.676 37.48H217.796C218.276 37.48 218.596 37.8 218.596 38.28V38.76C218.596 44.32 215.636 46.92 210.156 46.92H199.596C194.116 46.92 191.156 44.32 191.156 38.76V28.64C191.156 23.08 194.116 20.48 199.596 20.48H210.156C215.636 20.48 218.596 23.08 218.596 28.64V32.04C218.596 34.44 216.996 36.04 214.596 36.04H202.876ZM213.156 23.52C214.196 24.16 214.796 24.8 215.116 25.52C215.516 26.4 216.876 26 216.356 24.92C215.836 23.84 214.876 23 213.956 22.36C213.556 22.08 213.036 22 212.716 22.4C212.356 22.88 212.716 23.24 213.156 23.52ZM216.316 28.6C216.676 28.76 217.076 28.6 217.236 28.24C217.476 27.8 217.156 27.08 216.756 26.88C216.396 26.72 215.956 26.88 215.796 27.24C215.596 27.64 215.956 28.44 216.316 28.6ZM202.876 31.2H206.876V29.72C206.876 28.48 206.676 27.8 205.596 27.8H204.156C203.076 27.8 202.876 28.48 202.876 29.72V31.2Z" fill="url(#paint0_linear_458_2043)"/>
<defs>
<linearGradient id="paint0_linear_458_2043" x1="-1.52247e-05" y1="0" x2="220" y2="0" gradientUnits="userSpaceOnUse">
<stop stop-color="#FF9100"/>
<stop offset="1" stop-color="#FF5000"/>
</linearGradient>
</defs>
</svg>
